<?xml version="1.0" standalone="no"?>
<!DOCTYPE svg PUBLIC "-//W3C//DTD SVG 20010904//EN"
 "http://www.w3.org/TR/2001/REC-SVG-20010904/DTD/svg10.dtd">
<svg version="1.0" xmlns="http://www.w3.org/2000/svg"
 width="2048.000000pt" height="2732.000000pt" viewBox="0 0 2048.000000 2732.000000"
 preserveAspectRatio="xMidYMid meet">

<g transform="translate(0.000000,2732.000000) scale(0.100000,-0.100000)"
fill="#000000" stroke="none">
<path d="M1650 21400 c-569 -5 -828 -11 -858 -19 -46 -13 -41 -7 -95 -136
l-25 -60 -4 -432 c-2 -344 0 -435 10 -445 7 -7 52 -16 105 -20 101 -7 246 -32
274 -47 10 -5 41 -19 68 -31 162 -74 314 -225 399 -397 71 -145 68 -95 67
-1198 -1 -544 3 -1440 9 -1990 6 -550 15 -1630 20 -2400 25 -3702 30 -4385 40
-5390 12 -1249 15 -3438 5 -3476 -10 -42 -122 -111 -300 -188 -27 -12 -59 -26
-70 -31 -19 -9 -94 -38 -165 -65 -19 -8 -66 -26 -105 -41 -75 -28 -175 -57
-240 -69 -57 -10 -107 -39 -132 -77 -43 -66 -46 -100 -38 -483 9 -449 14 -509
48 -542 13 -14 35 -25 48 -25 153 3 4645 0 4649 -3 4 -2 1530 -5 3391 -6 3744
-1 3438 -7 3476 63 16 29 18 55 16 208 -8 512 -40 1993 -53 2405 -6 187 -15
540 -20 785 -5 245 -13 621 -19 835 -13 459 -28 1169 -41 1880 -5 281 -14 634
-19 785 -6 151 -13 360 -15 463 -5 200 -10 222 -57 248 -30 16 -99 14 -199 -5
-47 -9 -123 -24 -170 -32 -47 -9 -116 -22 -155 -29 -38 -7 -110 -21 -160 -30
-49 -9 -124 -23 -165 -31 -41 -7 -124 -23 -185 -34 -155 -29 -269 -50 -350
-65 -38 -7 -110 -21 -160 -30 -49 -9 -121 -23 -160 -30 -38 -8 -122 -23 -185
-35 -63 -12 -149 -28 -190 -36 -41 -8 -109 -21 -150 -29 -118 -22 -229 -43
-310 -59 -97 -19 -417 -80 -545 -104 -82 -15 -111 -25 -158 -56 -103 -69 -102
-50 -102 -1446 0 -1138 0 -1145 21 -1184 14 -28 36 -48 74 -69 30 -16 91 -63
135 -105 77 -72 300 -269 619 -546 l148 -128 -6 -107 c-4 -58 -11 -158 -16
-221 -5 -63 -12 -155 -15 -203 -6 -78 -9 -89 -28 -96 -30 -11 -5218 -31 -5238
-21 -17 10 -18 21 -79 640 -6 63 -18 144 -26 180 -8 36 -14 73 -14 82 0 22 40
50 120 82 36 15 74 31 85 36 11 5 81 34 155 65 132 55 185 77 225 95 66 29
215 90 221 90 3 0 29 12 58 26 58 29 110 75 134 119 16 28 17 219 20 2510 2
1364 -2 3650 -8 5080 -6 1430 -13 3259 -16 4065 -5 1611 -1 1504 -67 1545 -32
20 -50 20 -1372 21 -737 0 -1707 -3 -2155 -6z"/>
<path d="M8651 21330 c-66 -14 -88 -33 -106 -92 -11 -38 -14 -75 -10 -133 3
-44 10 -307 15 -585 13 -706 38 -1763 70 -2965 6 -214 15 -610 20 -880 5 -269
14 -679 20 -910 6 -231 15 -627 20 -880 16 -726 30 -1154 40 -1180 22 -59 93
-71 250 -40 193 37 229 44 315 60 50 9 122 22 160 30 105 20 227 42 355 65 63
12 147 27 185 35 39 7 111 21 160 30 50 9 122 23 160 30 39 7 108 20 155 29
123 23 294 55 375 71 39 8 111 21 160 30 50 9 119 23 155 30 36 7 103 20 150
29 89 16 225 42 395 75 55 11 133 25 174 32 57 10 88 22 133 52 51 34 59 44
72 90 33 117 37 315 34 1422 l-3 1090 -24 39 c-16 25 -39 45 -68 58 -24 11
-83 56 -131 100 -155 145 -174 161 -442 393 -146 126 -280 243 -298 260 l-33
31 11 149 c23 342 34 455 41 467 7 11 277 14 1446 19 791 4 1970 9 2620 12
928 5 1184 3 1192 -6 5 -7 14 -57 20 -112 6 -55 15 -147 21 -205 6 -58 17
-163 25 -235 8 -71 17 -160 20 -197 3 -36 12 -82 20 -101 23 -55 11 -73 -71
-112 -40 -19 -76 -35 -79 -35 -5 0 -46 -17 -120 -50 -11 -5 -96 -41 -190 -80
-93 -39 -183 -77 -200 -84 -16 -7 -76 -32 -132 -56 -114 -48 -165 -85 -192
-138 -18 -36 -19 -115 -23 -1977 -5 -1787 3 -5570 20 -9557 l7 -1616 24 -26
c13 -14 44 -33 68 -42 42 -16 176 -17 1971 -10 1060 4 2031 11 2157 14 264 8
276 11 296 84 6 24 19 59 29 78 15 31 18 83 24 467 7 427 7 432 -13 452 -17
17 -34 21 -83 21 -131 0 -286 40 -410 105 -179 94 -346 305 -399 503 -18 71
-20 102 -17 397 5 523 1 1561 -11 2870 -7 677 -16 1842 -22 2590 -5 748 -17
2247 -25 3330 -18 2260 -29 5094 -20 5130 12 48 91 99 289 187 98 43 150 64
332 135 22 8 54 21 70 27 17 7 64 21 105 31 41 10 91 22 110 26 90 22 139 90
149 208 6 70 -5 655 -15 779 -5 62 -10 79 -33 105 -25 27 -33 30 -72 26 -58
-5 286 -5 -5484 4 -2799 4 -5265 9 -5480 11 -214 3 -410 1 -434 -4z"/>
</g>
</svg>
